#!OML:ASF E:/inclinewalkrobotboard/Project1/Captureday1/Session1/subject1.ASF
:FULLY-SPECIFIED
:DEGREES
363
root 0 0 0 -7.292825035023341 16.42082898000638 15.75748538257143
lowerback -2.3686721141487657 -5.36817022799271 -8.87333632215129
upperback -6.968436601558014 -6.724131843769573 5.321746234679344
thorax -6.19370640334599 -1.948473641145868 10.652019798101769
lowerneck -6.134580763095333 -8.140917408076357 -6.242111885023062
upperneck 29.854173353408548 -10.32140518579669 1.232250929770875
head 11.048719210543531 -5.314974323149716 0.11104939186298757
rclavicle -1.0636850569574364E-14 7.067976395272649E-15
rhumerus 151.68813064665753 11.01307195761428 -191.3789019821022
rradius 20.3852159665982
rwrist 78.57703435296649
rhand -16.22480849407976 9.722269778255555
rfingers 7.12501999999999
rthumb 9.965704546803053 -19.730669502133367
lclavicle 3.795913158437788E-15 2.053440330751299E-15
lhumerus 63.069452045469475 29.04675864949646 23.32931326992019
lradius 42.62064377607424
lwrist -20.313929940285547
lhand -15.984425903432099 13.06208188743122
lfingers 7.125020000000004
lthumb 10.18096166044497 42.88974565172532
rfemur 160.80080921193144 -216.27272352423597 -183.6537273021405
rtibia 69.411473629471
rfoot -52.608830652126606 -23.112260724204486
rtoes 49.45548093773513
lfemur -85.94808981213754 16.251397053289466 -64.62996884867061
ltibia 65.42791442880555
lfoot 2.7371063356971845 37.57172130622268
ltoes 0.6727521155687857
364
root 0 0 0 -6.541772281975071 16.441976962251392 15.253533399214708
lowerback -2.8341213994961882 -5.38464556416325 -8.724642695145635
upperback -7.1887257788209435 -6.750648213883549 5.473800285344913
thorax -6.139891145288942 -1.9851117581082216 10.740184038420523
lowerneck -6.058110879899394 -8.222791672717861 -6.387452137002575
upperneck 29.894973663343094 -10.451629303695176 1.3818115339319248
head 11.068889224628569 -5.370793957936438 0.16377610228838002
rclavicle -1.004202865878148E-14 6.94733412556011E-15
rhumerus 152.4852873087176 10.794182617073204 -189.9585095134405
rradius 21.529163519893995
rwrist 76.75921975493429
rhand -16.196858893586597 9.748405519823269
rfingers 7.1250199999999895
rthumb 9.995636696554145 -19.689960110238154
lclavicle 4.039165497985706E-15 1.804182523612977E-15
lhumerus 64.02288253822051 28.41424653665512 23.12681185847952
lradius 46.67360779132646
lwrist -19.287808489414545
lhand -13.85818073768022 11.65135511620237
lfingers 7.125020000000008
lthumb 12.22312511123423 41.154934502567336
rfemur 161.0322678666841 -216.23420831045553 -183.6683320958358
rtibia 70.18715721042346
rfoot -50.52237245626749 -24.033279725816982
rtoes 49.480348987282426
lfemur -86.18612123432266 16.380775110593103 -64.39250855564963
ltibia 65.35536178653717
lfoot 1.8593825992949498 37.744840905580446
ltoes 1.2287688415483125
365
root 0 0 0 -5.4421377115413705 16.5208919346365 14.495544270503496
lowerback -3.451774915665747 -5.3949428509036785 -8.508076917024995
upperback -7.493849795332274 -6.773247044998076 5.677264195033018
thorax -6.078519608326658 -2.0320930603977763 10.848950330470187
lowerneck -5.9678142876931295 -8.32370501619673 -6.588096159184811
upperneck 29.901798924070125 -10.61293637106109 1.590800913792056
head 11.08140804286759 -5.4387645916150404 0.23846213390245086
rclavicle -9.279699252228194E-15 6.7477350938638466E-15
rhumerus 153.09755445824058 10.47298333803338 -188.58451387349402
rradius 22.541437029551197
rwrist 74.99254436450725
rhand -16.20010545425141 9.769226395047824
rfingers 7.125019999999989
rthumb 9.99557649701049 -19.665638455630546
lclavicle 4.161377720003767E-15 1.3391558706917324E-15
lhumerus 64.19390109744454 28.025019808235566 22.747979984962743
lradius 49.76281127976611
lwrist -18.553101988553472
lhand -11.980437377719907 10.568711338376096
lfingers 7.125020000000013
lthumb 14.02405534256903 39.79138461240522
rfemur 161.2110593093198 -216.21709464400897 -183.72351625691732
rtibia 70.64406738236744
rfoot -49.16409574380512 -24.704340510275507
rtoes 49.542022717834925
lfemur -86.47587350952094 16.570627473666885 -64.00780535176303
ltibia 65.30969680747212
lfoot 0.7511407923017686 37.9001792750268
ltoes 1.9218022994526116
366
root 0 0 0 -3.976088784864011 16.751074790668714 13.473337247094028
lowerback -4.207215745278758 -5.393835056819677 -8.224782408345417
upperback -7.881845721529661 -6.784829185607997 5.929767290431749
thorax -6.014476318242082 -2.085993531353296 10.976059445301914
lowerneck -5.857967403520566 -8.440016318650457 -6.836558806211666
upperneck 29.880068676837013 -10.797544323068372 1.8407256357932777
head 11.086352891961274 -5.516133153539185 0.3290723104092067
rclavicle -8.58944014573054E-15 6.4790939559760815E-15
rhumerus 153.51452905301383 10.090884559695603 -187.37444674558424
rradius 23.313494739813606
rwrist 73.49819099615738
rhand -16.2289426134449 9.771077250844618
rfingers 7.125019999999989
rthumb 9.970348168644335 -19.67124298156471
lclavicle 4.224837916441988E-15 6.976596154630726E-16
lhumerus 64.44866807748721 27.81044003855481 22.19250989450057
lradius 51.659212300712376
lwrist -18.11876126919228
lhand -10.580262909044094 9.919506306556524
lfingers 7.125020000000015
lthumb 15.36500030220685 38.93378834656733
rfemur 161.55132536091256 -216.37505791612676 -183.94781463685604
rtibia 70.91665689463056
rfoot -48.19209306004339 -25.175455233865137
rtoes 49.59267940640835
lfemur -86.7541277447898 16.81502441455017 -63.477183792724155
ltibia 65.2954086226313
lfoot -0.578676836141593 38.00972117890896
ltoes 2.713685674014709
367
root 0 0 0 -2.211037337773984 17.307853976953584 12.249378087886265
lowerback -5.044355395355215 -5.374922639881893 -7.8970294448540495
upperback -8.32539808083516 -6.774272078855272 6.2157157273362555
thorax -5.951405036750929 -2.13738392492165 11.115420302943221
lowerneck -5.714880501060352 -8.564691834241582 -7.101714590057292
upperneck 29.8765459688828 -10.989289920270192 2.071445687353875
head 11.094763425742828 -5.598150605391551 0.4148793917584205
rclavicle -8.062422681468783E-15 6.208264086663139E-15
rhumerus 153.91982200132412 9.71401240947731 -186.50946821001037
rradius 23.803243527644685
rwrist 72.37047974807382
rhand -16.260697166152614 9.7276259337699
rfingers 7.1250199999999895
rthumb 9.94122673734175 -19.728408797886352
lclavicle 4.178002223558305E-15 8.009519323097384E-18
lhumerus 65.19562204973525 27.75885302576178 21.57003692790509
lradius 52.68456877454878
lwrist -17.857556121690575
lhand -9.575530337626144 9.601977601536682
lfingers 7.125020000000016
lthumb 16.326699303748942 38.47031655153899
rfemur 162.1399157109401 -216.75907554609998 -184.3858960966887
rtibia 71.07698275930521
rfoot -47.42108170118796 -25.480222485859052
rtoes 49.61592417069163
lfemur -86.99371804537195 17.108577238072197 -62.83289061160901
ltibia 65.35102248284622
lfoot -2.056751259870847 38.053828299684525
ltoes 3.5493404016628674
368
root 0 0 0 -0.21362288690370335 18.452986293233263 10.885144763687064
lowerback -5.90221917057548 -5.330262120263203 -7.546286908227702
upperback -8.792410486304963 -6.727344349405461 6.520947314409854
thorax -5.889372322320687 -2.1752470802594814 11.261657337032124
lowerneck -5.51735360873607 -8.692377051599811 -7.347044569199517
upperneck 29.96134782630285 -11.171897634973385 2.2027434972537074
head 11.12467672291342 -5.681142690904544 0.4683290778944623
rclavicle -7.630752848492384E-15 5.963975431295676E-15
rhumerus 154.53694080832597 9.373184443401154 -186.13724982750603
rradius 24.022499286693666
rwrist 71.60488758593351
rhand -16.282139468755762 9.622117827353922
rfingers 7.12501999999999
rthumb 9.920802083157087 -19.850760315637494
lclavicle 4.014403461086111E-15 -6.6291625235647E-16
lhumerus 66.36416183584583 27.87212233422648 20.99063255598971
lradius 53.20670830188549
lwrist -17.659881349721715
lhand -8.821663615157211 9.481440260965812
lfingers 7.125020000000017
lthumb 17.048889384532522 38.24714598231114
rfemur 162.88666264352088 -217.2954137355194 -184.97518698217505
rtibia 71.14732650992883
rfoot -46.80695198971034 -25.651213261929247
rtoes 49.65801634461017
lfemur -87.19831952421771 17.443705308064843 -62.11944854870387
ltibia 65.52962507557181
lfoot -3.613760502929747 38.02632572142564
ltoes 4.383508295486729
369
root 0 0 0 2.0529272175994002 20.513330320291164 9.350072691739006
lowerback -6.767705077174007 -5.252751470676198 -7.163868824012534
upperback -9.275836092984932 -6.631878486998226 6.85401364163056
thorax -5.822809415746312 -2.1945704158254546 11.417992889803713
lowerneck -5.236907808757009 -8.828900288076381 -7.56003718775191
upperneck 30.19605516859209 -11.344440083497002 2.172648178235184
head 11.19305918318554 -5.768395179397793 0.46863027621749176
rclavicle -7.196833896140906E-15 5.725747561468938E-15
rhumerus 155.5016516032739 9.054827201217414 -186.2831207234873
rradius 24.012879006704324
rwrist 71.18086339211959
rhand -16.297490660494375 9.457675375537045
rfingers 7.125019999999991
rthumb 9.905220939141826 -20.035447299369533
lclavicle 3.7945422595738754E-15 -1.3229873016066199E-15
lhumerus 67.8019526902923 28.123246492287212 20.49649963068911
lradius 53.451485977163706
lwrist -17.477068490042452
lhand -8.232780794921423 9.47657136150583
lfingers 7.125020000000016
lthumb 17.614101356788876 38.169885324289005
rfemur 163.6186666636209 -217.85620067722192 -185.60932963422454
rtibia 71.11392653505281
rfoot -46.38519541944676 -25.71827423084583
rtoes 49.802975960596946
lfemur -87.37502116624603 17.813686751606596 -61.37786951621155
ltibia 65.87477265425613
lfoot -5.193479582941997 37.92626366771172
ltoes 5.182897781412939
